<?xml version="1.0" encoding="UTF-8"?>
<!DOCTYPE svg PUBLIC "-//W3C//DTD SVG 1.1//EN" "http://www.w3.org/Graphics/SVG/1.1/DTD/svg11.dtd">
<svg version="1.1" xmlns="http://www.w3.org/2000/svg" xmlns:xlink="http://www.w3.org/1999/xlink" x="0px" y="0px" viewBox="0 0 57 22" enable-background="new 0 0 57 22" xml:space="preserve">
<g id="logo_1_">
	<g id="logo">
		<g>
			<path fill="#FFFFFF" d="M3.783,15.326c0.245,0.896,0.691,1.598,1.34,2.103c0.649,0.506,1.416,0.757,2.3,0.757     c0.621,0,1.21-0.135,1.765-0.406c0.555-0.271,0.992-0.697,1.312-1.276h3.981c-0.433,1.478-1.256,2.669-2.47,3.575     c-1.214,0.907-2.734,1.361-4.559,1.361c-1.016,0-1.975-0.197-2.877-0.59c-0.905-0.393-1.694-0.93-2.372-1.612     c-0.677-0.683-1.213-1.481-1.609-2.397S0,14.943,0,13.896c0-1.047,0.197-2.033,0.593-2.959c0.396-0.925,0.932-1.729,1.609-2.411     c0.678-0.683,1.467-1.225,2.372-1.627c0.903-0.402,1.862-0.603,2.877-0.603c1.073,0,2.085,0.2,3.035,0.603     c0.95,0.402,1.764,0.991,2.442,1.768c0.677,0.775,1.186,1.725,1.524,2.846c0.339,1.122,0.442,2.393,0.311,3.814H3.783z      M11.065,12.297c-0.226-0.84-0.664-1.51-1.313-2.005c-0.65-0.495-1.425-0.743-2.329-0.743c-0.847,0-1.591,0.248-2.23,0.743     c-0.64,0.495-1.092,1.165-1.354,2.005H11.065z"/>
			<rect x="16.536" y="0.981" fill="#FFFFFF" width="3.726" height="20.121"/>
			<polygon fill="#231F20" points="30.95,21.103 27.132,21.103 21.627,6.66 25.523,6.66    "/>
			<g opacity="0.8">
				<g>
					<defs>
						<rect id="SVGID_8_" x="27.147" y="6.66" width="9.321" height="14.442"/>
					</defs>
					<clipPath id="SVGID_2_">
						<use xlink:href="#SVGID_8_" overflow="visible"/>
					</clipPath>
					<g clip-path="url(#SVGID_2_)">
						<defs>
							<polygon id="SVGID_10_" points="32.573,6.66 36.469,6.66 30.964,21.103 27.147,21.103        "/>
						</defs>
						<clipPath id="SVGID_4_">
							<use xlink:href="#SVGID_10_" overflow="visible"/>
						</clipPath>
						
							<linearGradient id="SVGID_6_" gradientUnits="userSpaceOnUse" x1="-13.0132" y1="702.4805" x2="-12.7496" y2="702.4805" gradientTransform="matrix(32.9592 -89.5477 -89.5477 -32.9592 63361.957 22014.8398)">
							<stop offset="0" style="stop-color:#FFFFFF"/>
							<stop offset="0.0385" style="stop-color:#FFFFFF"/>
							<stop offset="0.1132" style="stop-color:#E6F6FD"/>
							<stop offset="0.2725" style="stop-color:#A5E0F8"/>
							<stop offset="0.5017" style="stop-color:#3DBEEF"/>
							<stop offset="0.6319" style="stop-color:#00A9EA"/>
							<stop offset="1" style="stop-color:#00A9EA"/>
						</linearGradient>
						<polygon clip-path="url(#SVGID_4_)" fill="url(#SVGID_6_)" points="22.435,19.38 28.259,3.658 41.181,8.383 35.357,27.24               "/>
					</g>
				</g>
			</g>
			<path fill="#231F20" d="M41.715,4.389H37.99V0.939h3.725V4.389z M41.715,21.103H37.99V6.66h3.725V21.103z"/>
			<path fill="#231F20" d="M56.071,18.521c-0.318,0.6-0.755,1.113-1.317,1.543c-0.56,0.431-1.228,0.768-2.006,1.011     c-0.78,0.241-1.63,0.364-2.551,0.364c-0.922,0-1.778-0.117-2.569-0.352c-0.79-0.232-1.486-0.57-2.088-1.01     c-0.604-0.438-1.097-0.967-1.481-1.584c-0.388-0.617-0.636-1.318-0.749-2.104h3.782c0.132,0.32,0.315,0.582,0.55,0.786     c0.235,0.207,0.495,0.379,0.777,0.52c0.282,0.14,0.579,0.239,0.889,0.295c0.311,0.057,0.607,0.083,0.889,0.083     c0.753,0,1.377-0.107,1.877-0.322c0.498-0.215,0.748-0.537,0.748-0.966c0-0.206-0.039-0.385-0.113-0.533     c-0.075-0.15-0.226-0.281-0.452-0.395c-0.226-0.111-0.537-0.219-0.931-0.322c-0.396-0.102-0.913-0.199-1.553-0.293     c-0.659-0.094-1.341-0.22-2.046-0.379c-0.707-0.159-1.361-0.397-1.962-0.715c-0.603-0.318-1.097-0.734-1.482-1.248     c-0.387-0.514-0.58-1.174-0.58-1.978c0-0.561,0.128-1.122,0.382-1.683c0.254-0.562,0.635-1.056,1.144-1.486     c0.508-0.429,1.151-0.78,1.934-1.052c0.78-0.271,1.699-0.406,2.752-0.406c0.828,0,1.598,0.108,2.313,0.322     c0.713,0.216,1.345,0.519,1.897,0.911c0.55,0.393,1.003,0.869,1.358,1.432c0.354,0.561,0.588,1.176,0.7,1.85h-3.841     c-0.113-0.337-0.372-0.621-0.776-0.854c-0.404-0.234-0.956-0.352-1.651-0.352c-0.866,0-1.487,0.127-1.863,0.379     c-0.377,0.253-0.564,0.509-0.564,0.771c0,0.374,0.254,0.644,0.762,0.813c0.509,0.168,1.214,0.327,2.117,0.477     c0.904,0.15,1.734,0.322,2.493,0.519c0.759,0.196,1.411,0.458,1.952,0.786c0.542,0.326,0.966,0.746,1.275,1.261     c0.307,0.515,0.462,1.164,0.462,1.949C56.548,17.271,56.388,17.924,56.071,18.521"/>
			<path fill="#FFFFFF" d="M3.783,15.326c0.245,0.896,0.691,1.598,1.34,2.103c0.649,0.506,1.416,0.757,2.3,0.757     c0.621,0,1.21-0.135,1.765-0.406c0.555-0.271,0.992-0.697,1.312-1.276h3.981c-0.433,1.478-1.256,2.669-2.47,3.575     c-1.214,0.907-2.734,1.361-4.559,1.361c-1.016,0-1.975-0.197-2.877-0.59c-0.905-0.393-1.694-0.93-2.372-1.612     c-0.677-0.683-1.213-1.481-1.609-2.397S0,14.943,0,13.896c0-1.047,0.197-2.033,0.593-2.959c0.396-0.925,0.932-1.729,1.609-2.411     c0.678-0.683,1.467-1.225,2.372-1.627c0.903-0.402,1.862-0.603,2.877-0.603c1.073,0,2.085,0.2,3.035,0.603     c0.95,0.402,1.764,0.991,2.442,1.768c0.677,0.775,1.186,1.725,1.524,2.846c0.339,1.122,0.442,2.393,0.311,3.814H3.783z      M11.065,12.297c-0.226-0.84-0.664-1.51-1.313-2.005c-0.65-0.495-1.425-0.743-2.329-0.743c-0.847,0-1.591,0.248-2.23,0.743     c-0.64,0.495-1.092,1.165-1.354,2.005H11.065z"/>
			<rect x="16.536" y="0.981" fill="#FFFFFF" width="3.726" height="20.121"/>
			<polygon fill="#FFFFFF" points="30.95,21.103 27.132,21.103 21.627,6.66 25.523,6.66    "/>
			<g opacity="0.8">
				<g>
					<defs>
						<rect id="SVGID_13_" x="27.147" y="6.66" width="9.321" height="14.442"/>
					</defs>
					<clipPath id="SVGID_7_">
						<use xlink:href="#SVGID_13_" overflow="visible"/>
					</clipPath>
					<g clip-path="url(#SVGID_7_)">
						<defs>
							<polygon id="SVGID_15_" points="32.573,6.66 36.469,6.66 30.964,21.103 27.147,21.103        "/>
						</defs>
						<clipPath id="SVGID_9_">
							<use xlink:href="#SVGID_15_" overflow="visible"/>
						</clipPath>
						
							<linearGradient id="SVGID_11_" gradientUnits="userSpaceOnUse" x1="-13.0132" y1="702.4805" x2="-12.7496" y2="702.4805" gradientTransform="matrix(32.9592 -89.5477 -89.5477 -32.9592 63361.957 22014.8398)">
							<stop offset="0" style="stop-color:#FFFFFF"/>
							<stop offset="0.0385" style="stop-color:#FFFFFF"/>
							<stop offset="0.1132" style="stop-color:#E6F6FD"/>
							<stop offset="0.2725" style="stop-color:#A5E0F8"/>
							<stop offset="0.5017" style="stop-color:#3DBEEF"/>
							<stop offset="0.6319" style="stop-color:#00A9EA"/>
							<stop offset="1" style="stop-color:#00A9EA"/>
						</linearGradient>
						<polygon clip-path="url(#SVGID_9_)" fill="url(#SVGID_11_)" points="22.435,19.38 28.259,3.658 41.181,8.383 35.357,27.24"/>
					</g>
				</g>
			</g>
			<path fill="#FFFFFF" d="M41.715,4.389H37.99V0.939h3.725V4.389z M41.715,21.103H37.99V6.66h3.725V21.103z"/>
			<path fill="#FFFFFF" d="M56.071,18.521c-0.318,0.6-0.755,1.113-1.317,1.543c-0.56,0.431-1.228,0.768-2.006,1.011     c-0.78,0.241-1.63,0.364-2.551,0.364c-0.922,0-1.778-0.117-2.569-0.352c-0.79-0.232-1.486-0.57-2.088-1.01     c-0.604-0.438-1.097-0.967-1.481-1.584c-0.388-0.617-0.636-1.318-0.749-2.104h3.782c0.132,0.32,0.315,0.582,0.55,0.786     c0.235,0.207,0.495,0.379,0.777,0.52c0.282,0.14,0.579,0.239,0.889,0.295c0.311,0.057,0.607,0.083,0.889,0.083     c0.753,0,1.377-0.107,1.877-0.322c0.498-0.215,0.748-0.537,0.748-0.966c0-0.206-0.039-0.385-0.113-0.533     c-0.075-0.15-0.226-0.281-0.452-0.395c-0.226-0.111-0.537-0.219-0.931-0.322c-0.396-0.102-0.913-0.199-1.553-0.293     c-0.659-0.094-1.341-0.22-2.046-0.379c-0.707-0.159-1.361-0.397-1.962-0.715c-0.603-0.318-1.097-0.734-1.482-1.248     c-0.387-0.514-0.58-1.174-0.58-1.978c0-0.561,0.128-1.122,0.382-1.683c0.254-0.562,0.635-1.056,1.144-1.486     c0.508-0.429,1.151-0.78,1.934-1.052c0.78-0.271,1.699-0.406,2.752-0.406c0.828,0,1.598,0.108,2.313,0.322     c0.713,0.216,1.345,0.519,1.897,0.911c0.55,0.393,1.003,0.869,1.358,1.432c0.354,0.561,0.588,1.176,0.7,1.85h-3.841     c-0.113-0.337-0.372-0.621-0.776-0.854c-0.404-0.234-0.956-0.352-1.651-0.352c-0.866,0-1.487,0.127-1.863,0.379     c-0.377,0.253-0.564,0.509-0.564,0.771c0,0.374,0.254,0.644,0.762,0.813c0.509,0.168,1.214,0.327,2.117,0.477     c0.904,0.15,1.734,0.322,2.493,0.519c0.759,0.196,1.411,0.458,1.952,0.786c0.542,0.326,0.966,0.746,1.275,1.261     c0.307,0.515,0.462,1.164,0.462,1.949C56.548,17.271,56.388,17.924,56.071,18.521"/>
		</g>
	</g>
</g>
</svg>